<svg width="30" height="32" viewBox="0 0 30 32" fill="none" xmlns="http://www.w3.org/2000/svg">
<g filter="url(#filter0_d_113_8)">
<path fill-rule="evenodd" clip-rule="evenodd" d="M15 1C13.1434 1 11.363 1.7375 10.0502 3.05025C8.73746 4.36301 7.99996 6.14348 7.99996 8C7.99996 11.3527 7.28289 13.4346 6.62206 14.6461C6.29027 15.2544 5.96718 15.6535 5.74275 15.8904C5.63028 16.0091 5.5419 16.0878 5.48868 16.1322C5.46206 16.1544 5.4442 16.168 5.4365 16.1737L5.43365 16.1758C5.07516 16.4221 4.91652 16.8725 5.04287 17.2898C5.17056 17.7115 5.55929 18 5.99996 18H24C24.4406 18 24.8294 17.7115 24.9571 17.2898C25.0834 16.8725 24.9248 16.4221 24.5663 16.1758L24.5634 16.1737C24.5557 16.168 24.5379 16.1544 24.5112 16.1322C24.458 16.0878 24.3696 16.0091 24.2572 15.8904C24.0327 15.6535 23.7096 15.2544 23.3779 14.6461C22.717 13.4346 22 11.3527 22 8C22 6.14349 21.2625 4.36301 19.9497 3.05025C18.637 1.7375 16.8565 1 15 1ZM21.6221 15.6039C21.6982 15.7434 21.7745 15.8753 21.8506 16H8.14928C8.22537 15.8753 8.30175 15.7434 8.37785 15.6039C9.21702 14.0654 9.99996 11.6473 9.99996 8C9.99996 6.67392 10.5267 5.40215 11.4644 4.46447C12.4021 3.52678 13.6739 3 15 3C16.326 3 17.5978 3.52678 18.5355 4.46447C19.4732 5.40215 20 6.67392 20 8C20 11.6473 20.7829 14.0654 21.6221 15.6039ZM14.135 20.4982C13.8578 20.0205 13.2459 19.8579 12.7682 20.135C12.2905 20.4121 12.1278 21.024 12.405 21.5018C12.6687 21.9564 13.0472 22.3337 13.5026 22.5961C13.958 22.8584 14.4744 22.9965 15 22.9965C15.5255 22.9965 16.0419 22.8584 16.4973 22.5961C16.9527 22.3337 17.3312 21.9564 17.595 21.5018C17.8721 21.024 17.7095 20.4121 17.2317 20.135C16.754 19.8579 16.1421 20.0205 15.865 20.4982C15.7771 20.6498 15.6509 20.7756 15.4991 20.863C15.3473 20.9504 15.1751 20.9965 15 20.9965C14.8248 20.9965 14.6527 20.9504 14.5008 20.863C14.349 20.7756 14.2229 20.6498 14.135 20.4982Z" fill="black"/>
<path d="M6.62206 14.6461L6.18311 14.4067L6.18311 14.4067L6.62206 14.6461ZM5.74275 15.8904L5.37978 15.5465L5.37978 15.5465L5.74275 15.8904ZM5.48868 16.1322L5.80877 16.5163L5.80877 16.5163L5.48868 16.1322ZM5.4365 16.1737L5.73355 16.5759L5.7351 16.5747L5.4365 16.1737ZM5.43365 16.1758L5.71675 16.5879C5.72145 16.5847 5.7261 16.5814 5.73069 16.578L5.43365 16.1758ZM5.04287 17.2898L5.52141 17.1449L5.52141 17.1449L5.04287 17.2898ZM24.9571 17.2898L25.4356 17.4347L25.4356 17.4347L24.9571 17.2898ZM24.5663 16.1758L24.2692 16.578C24.2738 16.5814 24.2785 16.5847 24.2832 16.5879L24.5663 16.1758ZM24.5634 16.1737L24.2648 16.5748L24.2663 16.5759L24.5634 16.1737ZM24.5112 16.1322L24.8313 15.7481L24.8313 15.7481L24.5112 16.1322ZM24.2572 15.8904L23.8942 16.2343L23.8942 16.2343L24.2572 15.8904ZM23.3779 14.6461L23.8168 14.4067L23.8168 14.4067L23.3779 14.6461ZM19.9497 3.05025L19.5962 3.40381L19.5962 3.40381L19.9497 3.05025ZM21.8506 16V16.5C22.0314 16.5 22.1982 16.4024 22.2867 16.2447C22.3751 16.087 22.3716 15.8939 22.2774 15.7395L21.8506 16ZM21.6221 15.6039L22.061 15.3644L22.061 15.3644L21.6221 15.6039ZM8.14928 16L7.72248 15.7395C7.62829 15.8939 7.62477 16.087 7.71326 16.2447C7.80175 16.4024 7.96847 16.5 8.14928 16.5V16ZM8.37785 15.6039L8.8168 15.8433L8.8168 15.8433L8.37785 15.6039ZM11.4644 4.46447L11.1109 4.11091L11.1109 4.11091L11.4644 4.46447ZM18.5355 4.46447L18.889 4.11091L18.889 4.11091L18.5355 4.46447ZM12.7682 20.135L12.5173 19.7025L12.5173 19.7025L12.7682 20.135ZM14.135 20.4982L14.5675 20.2473L14.5675 20.2473L14.135 20.4982ZM12.405 21.5018L12.8375 21.2509L12.8375 21.2509L12.405 21.5018ZM13.5026 22.5961L13.2531 23.0293L13.2531 23.0293L13.5026 22.5961ZM16.4973 22.5961L16.7469 23.0293L16.7469 23.0293L16.4973 22.5961ZM17.595 21.5018L17.1625 21.2509L17.1625 21.2509L17.595 21.5018ZM17.2317 20.135L16.9808 20.5675L16.9808 20.5675L17.2317 20.135ZM15.865 20.4982L15.4325 20.2473L15.4325 20.2473L15.865 20.4982ZM14.5008 20.863L14.2513 21.2963L14.2513 21.2963L14.5008 20.863ZM10.4038 3.40381C11.6227 2.18482 13.2761 1.5 15 1.5V0.5C13.0108 0.5 11.1032 1.29018 9.69666 2.6967L10.4038 3.40381ZM8.49996 8C8.49996 6.27609 9.18478 4.62279 10.4038 3.40381L9.69666 2.6967C8.29013 4.10322 7.49996 6.01088 7.49996 8H8.49996ZM7.06101 14.8856C7.76642 13.5923 8.49996 11.4263 8.49996 8H7.49996C7.49996 11.279 6.79936 13.2769 6.18311 14.4067L7.06101 14.8856ZM6.10573 16.2343C6.35857 15.9674 6.70761 15.5335 7.06101 14.8856L6.18311 14.4067C5.87292 14.9754 5.57579 15.3396 5.37978 15.5465L6.10573 16.2343ZM5.80877 16.5163C5.8764 16.4599 5.97918 16.3678 6.10573 16.2343L5.37978 15.5465C5.28138 15.6504 5.20739 15.7157 5.16859 15.7481L5.80877 16.5163ZM5.7351 16.5747C5.74991 16.5637 5.77494 16.5445 5.80877 16.5163L5.16859 15.7481C5.14917 15.7642 5.1385 15.7722 5.13791 15.7726L5.7351 16.5747ZM5.73069 16.578L5.73354 16.5759L5.13947 15.7715L5.13661 15.7736L5.73069 16.578ZM5.52141 17.1449C5.45824 16.9363 5.53756 16.711 5.71675 16.5879L5.15054 15.7637C4.61276 16.1331 4.3748 16.8087 4.56432 17.4347L5.52141 17.1449ZM5.99996 17.5C5.77962 17.5 5.58526 17.3558 5.52141 17.1449L4.56432 17.4347C4.75587 18.0673 5.33896 18.5 5.99996 18.5V17.5ZM24 17.5H5.99996V18.5H24V17.5ZM24.4785 17.1449C24.4147 17.3558 24.2203 17.5 24 17.5V18.5C24.661 18.5 25.244 18.0673 25.4356 17.4347L24.4785 17.1449ZM24.2832 16.5879C24.4624 16.711 24.5417 16.9363 24.4785 17.1449L25.4356 17.4347C25.6251 16.8087 25.3872 16.1331 24.8494 15.7637L24.2832 16.5879ZM24.2663 16.5759L24.2692 16.578L24.8633 15.7736L24.8605 15.7715L24.2663 16.5759ZM24.1911 16.5163C24.225 16.5445 24.25 16.5637 24.2648 16.5748L24.862 15.7726C24.8614 15.7722 24.8507 15.7642 24.8313 15.7481L24.1911 16.5163ZM23.8942 16.2343C24.0207 16.3678 24.1235 16.4599 24.1911 16.5163L24.8313 15.7481C24.7925 15.7157 24.7185 15.6504 24.6201 15.5465L23.8942 16.2343ZM22.9389 14.8856C23.2923 15.5335 23.6413 15.9674 23.8942 16.2343L24.6201 15.5465C24.4241 15.3396 24.127 14.9754 23.8168 14.4067L22.9389 14.8856ZM21.5 8C21.5 11.4263 22.2335 13.5923 22.9389 14.8856L23.8168 14.4067C23.2006 13.2769 22.5 11.279 22.5 8H21.5ZM19.5962 3.40381C20.8151 4.62279 21.5 6.27609 21.5 8H22.5C22.5 6.01088 21.7098 4.10322 20.3033 2.6967L19.5962 3.40381ZM15 1.5C16.7239 1.5 18.3772 2.18482 19.5962 3.40381L20.3033 2.6967C18.8967 1.29018 16.9891 0.5 15 0.5V1.5ZM22.2774 15.7395C22.2056 15.6217 22.1332 15.4968 22.061 15.3644L21.1831 15.8433C21.2631 15.9899 21.3435 16.1289 21.4238 16.2605L22.2774 15.7395ZM8.14928 16.5H21.8506V15.5H8.14928V16.5ZM7.93891 15.3644C7.8667 15.4968 7.79436 15.6217 7.72248 15.7395L8.57608 16.2605C8.65637 16.1289 8.73681 15.9899 8.8168 15.8433L7.93891 15.3644ZM9.49996 8C9.49996 11.5737 8.73348 13.9077 7.93891 15.3644L8.8168 15.8433C9.70056 14.223 10.5 11.721 10.5 8H9.49996ZM11.1109 4.11091C10.0794 5.14236 9.49996 6.54131 9.49996 8H10.5C10.5 6.80653 10.9741 5.66193 11.818 4.81802L11.1109 4.11091ZM15 2.5C13.5413 2.5 12.1423 3.07946 11.1109 4.11091L11.818 4.81802C12.6619 3.97411 13.8065 3.5 15 3.5V2.5ZM18.889 4.11091C17.8576 3.07946 16.4586 2.5 15 2.5V3.5C16.1934 3.5 17.338 3.97411 18.1819 4.81802L18.889 4.11091ZM20.5 8C20.5 6.54131 19.9205 5.14236 18.889 4.11091L18.1819 4.81802C19.0259 5.66193 19.5 6.80653 19.5 8H20.5ZM22.061 15.3644C21.2664 13.9077 20.5 11.5737 20.5 8H19.5C19.5 11.721 20.2993 14.223 21.1831 15.8433L22.061 15.3644ZM13.0191 20.5675C13.2579 20.4289 13.5639 20.5103 13.7025 20.7491L14.5675 20.2473C14.1518 19.5308 13.2339 19.2868 12.5173 19.7025L13.0191 20.5675ZM12.8375 21.2509C12.6989 21.012 12.7802 20.7061 13.0191 20.5675L12.5173 19.7025C11.8007 20.1182 11.5568 21.0361 11.9725 21.7527L12.8375 21.2509ZM13.7522 22.1628C13.3727 21.9442 13.0572 21.6297 12.8375 21.2509L11.9725 21.7527C12.2801 22.283 12.7217 22.7233 13.2531 23.0293L13.7522 22.1628ZM15 22.4965C14.562 22.4965 14.1317 22.3814 13.7522 22.1628L13.2531 23.0293C13.7844 23.3354 14.3868 23.4965 15 23.4965V22.4965ZM16.2477 22.1628C15.8682 22.3814 15.4379 22.4965 15 22.4965V23.4965C15.6131 23.4965 16.2155 23.3354 16.7469 23.0293L16.2477 22.1628ZM17.1625 21.2509C16.9427 21.6297 16.6273 21.9442 16.2477 22.1628L16.7469 23.0293C17.2782 22.7233 17.7198 22.283 18.0275 21.7527L17.1625 21.2509ZM16.9808 20.5675C17.2197 20.7061 17.301 21.012 17.1625 21.2509L18.0275 21.7527C18.4431 21.0361 18.1992 20.1182 17.4826 19.7025L16.9808 20.5675ZM16.2975 20.7491C16.436 20.5103 16.742 20.4289 16.9808 20.5675L17.4826 19.7025C16.766 19.2868 15.8481 19.5308 15.4325 20.2473L16.2975 20.7491ZM15.7486 21.2963C15.9763 21.1651 16.1656 20.9764 16.2975 20.7491L15.4325 20.2473C15.3885 20.3231 15.3254 20.386 15.2495 20.4297L15.7486 21.2963ZM15 21.4965C15.2627 21.4965 15.5209 21.4274 15.7486 21.2963L15.2495 20.4297C15.1736 20.4734 15.0876 20.4965 15 20.4965V21.4965ZM14.2513 21.2963C14.479 21.4274 14.7372 21.4965 15 21.4965V20.4965C14.9124 20.4965 14.8263 20.4734 14.7504 20.4297L14.2513 21.2963ZM13.7025 20.7491C13.8343 20.9764 14.0236 21.1651 14.2513 21.2963L14.7504 20.4297C14.6745 20.386 14.6114 20.3231 14.5675 20.2473L13.7025 20.7491Z" fill="black"/>
</g>
<defs>
<filter id="filter0_d_113_8" x="0.499878" y="0.5" width="29.0002" height="30.9965" filterUnits="userSpaceOnUse" color-interpolation-filters="sRGB">
<feFlood flood-opacity="0" result="BackgroundImageFix"/>
<feColorMatrix in="SourceAlpha" type="matrix" values="0 0 0 0 0 0 0 0 0 0 0 0 0 0 0 0 0 0 127 0" result="hardAlpha"/>
<feOffset dy="4"/>
<feGaussianBlur stdDeviation="2"/>
<feComposite in2="hardAlpha" operator="out"/>
<feColorMatrix type="matrix" values="0 0 0 0 0 0 0 0 0 0 0 0 0 0 0 0 0 0 0.25 0"/>
<feBlend mode="normal" in2="BackgroundImageFix" result="effect1_dropShadow_113_8"/>
<feBlend mode="normal" in="SourceGraphic" in2="effect1_dropShadow_113_8" result="shape"/>
</filter>
</defs>
</svg>
